<svg width="928" height="1736" viewBox="0 0 928 1736" class="keymap" xmlns="http://www.w3.org/2000/svg" xmlns:xlink="http://www.w3.org/1999/xlink">
<style>/* inherit to force styles through use tags */
svg path {
    fill: inherit;
}

/* font and background color specifications */
svg.keymap {
    font-family: SFMono-Regular,Consolas,Liberation Mono,Menlo,monospace;
    font-size: 14px;
    font-kerning: normal;
    text-rendering: optimizeLegibility;
    fill: #24292e;
}

/* default key styling */
rect.key {
    fill: #f6f8fa;
}

rect.key, rect.combo {
    stroke: #c9cccf;
    stroke-width: 1;
}

/* default key side styling, only used is draw_key_sides is set */
rect.side {
    filter: brightness(90%);
}

/* color accent for combo boxes */
rect.combo, rect.combo-separate {
    fill: #cdf;
}

/* color accent for held keys */
rect.held, rect.combo.held {
    fill: #fdd;
}

/* color accent for ghost (optional) keys */
rect.ghost, rect.combo.ghost {
    stroke-dasharray: 4, 4;
    stroke-width: 2;
}

text {
    text-anchor: middle;
    dominant-baseline: middle;
}

/* styling for layer labels */
text.label {
    font-weight: bold;
    text-anchor: start;
    stroke: white;
    stroke-width: 4;
    paint-order: stroke;
}

/* styling for optional footer */
text.footer {
    text-anchor: end;
    dominant-baseline: auto;
    stroke: white;
    stroke-width: 4;
    paint-order: stroke;
}

/* styling for combo tap, and key hold/shifted label text */
text.combo, text.hold, text.shifted {
    font-size: 11px;
}

text.hold {
    text-anchor: middle;
    dominant-baseline: auto;
}

text.shifted {
    text-anchor: middle;
    dominant-baseline: hanging;
}

/* styling for hold/shifted label text in combo box */
text.combo.hold, text.combo.shifted {
    font-size: 8px;
}

/* lighter symbol for transparent keys */
text.trans {
    fill: #7b7e81;
}

/* styling for combo dendrons */
path.combo {
    stroke-width: 1;
    stroke: gray;
    fill: none;
}

/* Start Tabler Icons Cleanup */
/* cannot use height/width with glyphs */
.icon-tabler > path {
    fill: inherit;
    stroke: inherit;
    stroke-width: 2;
}
/* hide tabler's default box */
.icon-tabler > path[stroke="none"][fill="none"] {
    visibility: hidden;
}
/* End Tabler Icons Cleanup */
</style>
<g transform="translate(30, 0)" class="layer-L0">
<text x="0" y="28" class="label">L0:</text>
<g transform="translate(0, 56)">
<g transform="translate(19, 24)" class="key keypos-0">
<rect rx="6" ry="6" x="-17" y="-22" width="35" height="44" class="key"/>
</g>
<g transform="translate(59, 24)" class="key keypos-1">
<rect rx="6" ry="6" x="-17" y="-22" width="35" height="44" class="key"/>
</g>
<g transform="translate(97, 24)" class="key keypos-2">
<rect rx="6" ry="6" x="-17" y="-22" width="35" height="44" class="key"/>
</g>
<g transform="translate(136, 24)" class="key keypos-3">
<rect rx="6" ry="6" x="-17" y="-22" width="35" height="44" class="key"/>
</g>
<g transform="translate(175, 24)" class="key keypos-4">
<rect rx="6" ry="6" x="-17" y="-22" width="35" height="44" class="key"/>
</g>
<g transform="translate(214, 24)" class="key keypos-5">
<rect rx="6" ry="6" x="-17" y="-22" width="35" height="44" class="key"/>
</g>
<g transform="translate(253, 24)" class="key keypos-6">
<rect rx="6" ry="6" x="-17" y="-22" width="35" height="44" class="key"/>
</g>
<g transform="translate(292, 24)" class="key keypos-7">
<rect rx="6" ry="6" x="-17" y="-22" width="35" height="44" class="key"/>
</g>
<g transform="translate(331, 24)" class="key keypos-8">
<rect rx="6" ry="6" x="-17" y="-22" width="35" height="44" class="key"/>
</g>
<g transform="translate(537, 24)" class="key keypos-9">
<rect rx="6" ry="6" x="-17" y="-22" width="35" height="44" class="key"/>
</g>
<g transform="translate(577, 24)" class="key keypos-10">
<rect rx="6" ry="6" x="-17" y="-22" width="35" height="44" class="key"/>
</g>
<g transform="translate(615, 24)" class="key keypos-11">
<rect rx="6" ry="6" x="-17" y="-22" width="35" height="44" class="key"/>
</g>
<g transform="translate(654, 24)" class="key keypos-12">
<rect rx="6" ry="6" x="-17" y="-22" width="35" height="44" class="key"/>
</g>
<g transform="translate(693, 24)" class="key keypos-13">
<rect rx="6" ry="6" x="-17" y="-22" width="35" height="44" class="key"/>
</g>
<g transform="translate(732, 24)" class="key keypos-14">
<rect rx="6" ry="6" x="-17" y="-22" width="35" height="44" class="key"/>
</g>
<g transform="translate(771, 24)" class="key keypos-15">
<rect rx="6" ry="6" x="-17" y="-22" width="35" height="44" class="key"/>
</g>
<g transform="translate(810, 24)" class="key keypos-16">
<rect rx="6" ry="6" x="-17" y="-22" width="35" height="44" class="key"/>
</g>
<g transform="translate(849, 24)" class="key keypos-17">
<rect rx="6" ry="6" x="-17" y="-22" width="35" height="44" class="key"/>
<text x="0" y="0" class="key tap">
<tspan x="0" dy="-0.6em">QK</tspan><tspan x="0" dy="1.2em">BOOT</tspan>
</text>
</g>
<g transform="translate(35, 98)" class="key keypos-18">
<rect rx="6" ry="6" x="-33" y="-26" width="66" height="52" class="key"/>
<text x="0" y="0" class="key tap">=</text>
</g>
<g transform="translate(98, 98)" class="key keypos-19">
<rect rx="6" ry="6" x="-26" y="-26" width="52" height="52" class="key"/>
<text x="0" y="0" class="key tap">1</text>
</g>
<g transform="translate(154, 84)" class="key keypos-20">
<rect rx="6" ry="6" x="-26" y="-26" width="52" height="52" class="key"/>
<text x="0" y="0" class="key tap">2</text>
</g>
<g transform="translate(210, 84)" class="key keypos-21">
<rect rx="6" ry="6" x="-26" y="-26" width="52" height="52" class="key"/>
<text x="0" y="0" class="key tap">3</text>
</g>
<g transform="translate(266, 84)" class="key keypos-22">
<rect rx="6" ry="6" x="-26" y="-26" width="52" height="52" class="key"/>
<text x="0" y="0" class="key tap">4</text>
</g>
<g transform="translate(322, 84)" class="key keypos-23">
<rect rx="6" ry="6" x="-26" y="-26" width="52" height="52" class="key"/>
<text x="0" y="0" class="key tap">5</text>
</g>
<g transform="translate(546, 84)" class="key keypos-24">
<rect rx="6" ry="6" x="-26" y="-26" width="52" height="52" class="key"/>
<text x="0" y="0" class="key tap">6</text>
</g>
<g transform="translate(602, 84)" class="key keypos-25">
<rect rx="6" ry="6" x="-26" y="-26" width="52" height="52" class="key"/>
<text x="0" y="0" class="key tap">7</text>
</g>
<g transform="translate(658, 84)" class="key keypos-26">
<rect rx="6" ry="6" x="-26" y="-26" width="52" height="52" class="key"/>
<text x="0" y="0" class="key tap">8</text>
</g>
<g transform="translate(714, 84)" class="key keypos-27">
<rect rx="6" ry="6" x="-26" y="-26" width="52" height="52" class="key"/>
<text x="0" y="0" class="key tap">9</text>
</g>
<g transform="translate(770, 98)" class="key keypos-28">
<rect rx="6" ry="6" x="-26" y="-26" width="52" height="52" class="key"/>
<text x="0" y="0" class="key tap">0</text>
</g>
<g transform="translate(833, 98)" class="key keypos-29">
<rect rx="6" ry="6" x="-33" y="-26" width="66" height="52" class="key"/>
<text x="0" y="0" class="key tap">-</text>
</g>
<g transform="translate(35, 154)" class="key keypos-30">
<rect rx="6" ry="6" x="-33" y="-26" width="66" height="52" class="key"/>
<text x="0" y="0" class="key tap">TAB</text>
</g>
<g transform="translate(98, 154)" class="key keypos-31">
<rect rx="6" ry="6" x="-26" y="-26" width="52" height="52" class="key"/>
<text x="0" y="0" class="key tap">Q</text>
</g>
<g transform="translate(154, 140)" class="key keypos-32">
<rect rx="6" ry="6" x="-26" y="-26" width="52" height="52" class="key"/>
<text x="0" y="0" class="key tap">W</text>
</g>
<g transform="translate(210, 140)" class="key keypos-33">
<rect rx="6" ry="6" x="-26" y="-26" width="52" height="52" class="key"/>
<text x="0" y="0" class="key tap">E</text>
</g>
<g transform="translate(266, 140)" class="key keypos-34">
<rect rx="6" ry="6" x="-26" y="-26" width="52" height="52" class="key"/>
<text x="0" y="0" class="key tap">R</text>
</g>
<g transform="translate(322, 140)" class="key keypos-35">
<rect rx="6" ry="6" x="-26" y="-26" width="52" height="52" class="key"/>
<text x="0" y="0" class="key tap">T</text>
</g>
<g transform="translate(546, 140)" class="key keypos-36">
<rect rx="6" ry="6" x="-26" y="-26" width="52" height="52" class="key"/>
<text x="0" y="0" class="key tap">Y</text>
</g>
<g transform="translate(602, 140)" class="key keypos-37">
<rect rx="6" ry="6" x="-26" y="-26" width="52" height="52" class="key"/>
<text x="0" y="0" class="key tap">U</text>
</g>
<g transform="translate(658, 140)" class="key keypos-38">
<rect rx="6" ry="6" x="-26" y="-26" width="52" height="52" class="key"/>
<text x="0" y="0" class="key tap">I</text>
</g>
<g transform="translate(714, 140)" class="key keypos-39">
<rect rx="6" ry="6" x="-26" y="-26" width="52" height="52" class="key"/>
<text x="0" y="0" class="key tap">O</text>
</g>
<g transform="translate(770, 154)" class="key keypos-40">
<rect rx="6" ry="6" x="-26" y="-26" width="52" height="52" class="key"/>
<text x="0" y="0" class="key tap">P</text>
</g>
<g transform="translate(833, 154)" class="key keypos-41">
<rect rx="6" ry="6" x="-33" y="-26" width="66" height="52" class="key"/>
<text x="0" y="0" class="key tap">\</text>
</g>
<g transform="translate(35, 210)" class="key keypos-42">
<rect rx="6" ry="6" x="-33" y="-26" width="66" height="52" class="key"/>
<text x="0" y="0" class="key tap">`</text>
</g>
<g transform="translate(98, 210)" class="key keypos-43">
<rect rx="6" ry="6" x="-26" y="-26" width="52" height="52" class="key"/>
<text x="0" y="0" class="key tap">A</text>
</g>
<g transform="translate(154, 196)" class="key keypos-44">
<rect rx="6" ry="6" x="-26" y="-26" width="52" height="52" class="key"/>
<text x="0" y="0" class="key tap">S</text>
</g>
<g transform="translate(210, 196)" class="key keypos-45">
<rect rx="6" ry="6" x="-26" y="-26" width="52" height="52" class="key"/>
<text x="0" y="0" class="key tap">D</text>
</g>
<g transform="translate(266, 196)" class="key keypos-46">
<rect rx="6" ry="6" x="-26" y="-26" width="52" height="52" class="key"/>
<text x="0" y="0" class="key tap">F</text>
</g>
<g transform="translate(322, 196)" class="key keypos-47">
<rect rx="6" ry="6" x="-26" y="-26" width="52" height="52" class="key"/>
<text x="0" y="0" class="key tap">G</text>
</g>
<g transform="translate(546, 196)" class="key keypos-48">
<rect rx="6" ry="6" x="-26" y="-26" width="52" height="52" class="key"/>
<text x="0" y="0" class="key tap">H</text>
</g>
<g transform="translate(602, 196)" class="key keypos-49">
<rect rx="6" ry="6" x="-26" y="-26" width="52" height="52" class="key"/>
<text x="0" y="0" class="key tap">J</text>
</g>
<g transform="translate(658, 196)" class="key keypos-50">
<rect rx="6" ry="6" x="-26" y="-26" width="52" height="52" class="key"/>
<text x="0" y="0" class="key tap">K</text>
</g>
<g transform="translate(714, 196)" class="key keypos-51">
<rect rx="6" ry="6" x="-26" y="-26" width="52" height="52" class="key"/>
<text x="0" y="0" class="key tap">L</text>
</g>
<g transform="translate(770, 210)" class="key keypos-52">
<rect rx="6" ry="6" x="-26" y="-26" width="52" height="52" class="key"/>
<text x="0" y="0" class="key tap">;</text>
</g>
<g transform="translate(833, 210)" class="key keypos-53">
<rect rx="6" ry="6" x="-33" y="-26" width="66" height="52" class="key"/>
<text x="0" y="0" class="key tap">&#x27;</text>
</g>
<g transform="translate(35, 266)" class="key keypos-54">
<rect rx="6" ry="6" x="-33" y="-26" width="66" height="52" class="key"/>
</g>
<g transform="translate(98, 266)" class="key keypos-55">
<rect rx="6" ry="6" x="-26" y="-26" width="52" height="52" class="key"/>
<text x="0" y="0" class="key tap">Z</text>
</g>
<g transform="translate(154, 252)" class="key keypos-56">
<rect rx="6" ry="6" x="-26" y="-26" width="52" height="52" class="key"/>
<text x="0" y="0" class="key tap">X</text>
</g>
<g transform="translate(210, 252)" class="key keypos-57">
<rect rx="6" ry="6" x="-26" y="-26" width="52" height="52" class="key"/>
<text x="0" y="0" class="key tap">C</text>
</g>
<g transform="translate(266, 252)" class="key keypos-58">
<rect rx="6" ry="6" x="-26" y="-26" width="52" height="52" class="key"/>
<text x="0" y="0" class="key tap">V</text>
</g>
<g transform="translate(322, 252)" class="key keypos-59">
<rect rx="6" ry="6" x="-26" y="-26" width="52" height="52" class="key"/>
<text x="0" y="0" class="key tap">B</text>
</g>
<g transform="translate(546, 252)" class="key keypos-60">
<rect rx="6" ry="6" x="-26" y="-26" width="52" height="52" class="key"/>
<text x="0" y="0" class="key tap">N</text>
</g>
<g transform="translate(602, 252)" class="key keypos-61">
<rect rx="6" ry="6" x="-26" y="-26" width="52" height="52" class="key"/>
<text x="0" y="0" class="key tap">M</text>
</g>
<g transform="translate(658, 252)" class="key keypos-62">
<rect rx="6" ry="6" x="-26" y="-26" width="52" height="52" class="key"/>
<text x="0" y="0" class="key tap">,</text>
</g>
<g transform="translate(714, 252)" class="key keypos-63">
<rect rx="6" ry="6" x="-26" y="-26" width="52" height="52" class="key"/>
<text x="0" y="0" class="key tap">.</text>
</g>
<g transform="translate(770, 266)" class="key keypos-64">
<rect rx="6" ry="6" x="-26" y="-26" width="52" height="52" class="key"/>
<text x="0" y="0" class="key tap">/</text>
</g>
<g transform="translate(833, 266)" class="key keypos-65">
<rect rx="6" ry="6" x="-33" y="-26" width="66" height="52" class="key"/>
</g>
<g transform="translate(98, 322)" class="key keypos-66">
<rect rx="6" ry="6" x="-26" y="-26" width="52" height="52" class="key"/>
</g>
<g transform="translate(154, 308)" class="key keypos-67">
<rect rx="6" ry="6" x="-26" y="-26" width="52" height="52" class="key"/>
<text x="0" y="0" class="key tap">LALT</text>
<text x="0" y="24" class="key hold">sticky</text>
</g>
<g transform="translate(210, 308)" class="key keypos-68">
<rect rx="6" ry="6" x="-26" y="-26" width="52" height="52" class="key"/>
<text x="0" y="0" class="key tap">L1</text>
<text x="0" y="24" class="key hold">sticky</text>
</g>
<g transform="translate(266, 308)" class="key keypos-69">
<rect rx="6" ry="6" x="-26" y="-26" width="52" height="52" class="key"/>
<text x="0" y="0" class="key tap">ESC</text>
</g>
<g transform="translate(602, 308)" class="key keypos-70">
<rect rx="6" ry="6" x="-26" y="-26" width="52" height="52" class="key"/>
<text x="0" y="0" class="key tap">ENTER</text>
</g>
<g transform="translate(658, 308)" class="key keypos-71">
<rect rx="6" ry="6" x="-26" y="-26" width="52" height="52" class="key"/>
<text x="0" y="0" class="key tap">L2</text>
<text x="0" y="24" class="key hold">sticky</text>
</g>
<g transform="translate(714, 308)" class="key keypos-72">
<rect rx="6" ry="6" x="-26" y="-26" width="52" height="52" class="key"/>
<text x="0" y="0" class="key tap">LGUI</text>
<text x="0" y="24" class="key hold">sticky</text>
</g>
<g transform="translate(770, 322)" class="key keypos-73">
<rect rx="6" ry="6" x="-26" y="-26" width="52" height="52" class="key"/>
</g>
<g transform="translate(322, 364)" class="key keypos-74">
<rect rx="6" ry="6" x="-26" y="-26" width="52" height="52" class="key"/>
<text x="0" y="0" class="key tap">LCTL</text>
<text x="0" y="24" class="key hold">sticky</text>
</g>
<g transform="translate(378, 364)" class="key keypos-75">
<rect rx="6" ry="6" x="-26" y="-26" width="52" height="52" class="key"/>
</g>
<g transform="translate(490, 364)" class="key keypos-76">
<rect rx="6" ry="6" x="-26" y="-26" width="52" height="52" class="key"/>
</g>
<g transform="translate(546, 364)" class="key keypos-77">
<rect rx="6" ry="6" x="-26" y="-26" width="52" height="52" class="key"/>
<text x="0" y="0" class="key tap">LSFT</text>
<text x="0" y="24" class="key hold">sticky</text>
</g>
<g transform="translate(378, 420)" class="key keypos-78">
<rect rx="6" ry="6" x="-26" y="-26" width="52" height="52" class="key"/>
</g>
<g transform="translate(490, 420)" class="key keypos-79">
<rect rx="6" ry="6" x="-26" y="-26" width="52" height="52" class="key"/>
</g>
<g transform="translate(266, 448)" class="key keypos-80">
<rect rx="6" ry="6" x="-26" y="-54" width="52" height="108" class="key"/>
<text x="0" y="0" class="key tap">BSPC</text>
</g>
<g transform="translate(322, 448)" class="key keypos-81">
<rect rx="6" ry="6" x="-26" y="-54" width="52" height="108" class="key"/>
</g>
<g transform="translate(378, 476)" class="key keypos-82">
<rect rx="6" ry="6" x="-26" y="-26" width="52" height="52" class="key"/>
</g>
<g transform="translate(490, 476)" class="key keypos-83">
<rect rx="6" ry="6" x="-26" y="-26" width="52" height="52" class="key"/>
</g>
<g transform="translate(546, 448)" class="key keypos-84">
<rect rx="6" ry="6" x="-26" y="-54" width="52" height="108" class="key"/>
</g>
<g transform="translate(602, 448)" class="key keypos-85">
<rect rx="6" ry="6" x="-26" y="-54" width="52" height="108" class="key"/>
<text x="0" y="0" class="key tap">SPC</text>
</g>
</g>
</g>
<g transform="translate(30, 560)" class="layer-L1">
<text x="0" y="28" class="label">L1:</text>
<g transform="translate(0, 56)">
<g transform="translate(19, 24)" class="key keypos-0">
<rect rx="6" ry="6" x="-17" y="-22" width="35" height="44" class="key"/>
</g>
<g transform="translate(59, 24)" class="key keypos-1">
<rect rx="6" ry="6" x="-17" y="-22" width="35" height="44" class="key"/>
</g>
<g transform="translate(97, 24)" class="key keypos-2">
<rect rx="6" ry="6" x="-17" y="-22" width="35" height="44" class="key"/>
</g>
<g transform="translate(136, 24)" class="key keypos-3">
<rect rx="6" ry="6" x="-17" y="-22" width="35" height="44" class="key"/>
</g>
<g transform="translate(175, 24)" class="key keypos-4">
<rect rx="6" ry="6" x="-17" y="-22" width="35" height="44" class="key"/>
</g>
<g transform="translate(214, 24)" class="key keypos-5">
<rect rx="6" ry="6" x="-17" y="-22" width="35" height="44" class="key"/>
</g>
<g transform="translate(253, 24)" class="key keypos-6">
<rect rx="6" ry="6" x="-17" y="-22" width="35" height="44" class="key"/>
</g>
<g transform="translate(292, 24)" class="key keypos-7">
<rect rx="6" ry="6" x="-17" y="-22" width="35" height="44" class="key"/>
</g>
<g transform="translate(331, 24)" class="key keypos-8">
<rect rx="6" ry="6" x="-17" y="-22" width="35" height="44" class="key"/>
</g>
<g transform="translate(537, 24)" class="key keypos-9">
<rect rx="6" ry="6" x="-17" y="-22" width="35" height="44" class="key"/>
</g>
<g transform="translate(577, 24)" class="key keypos-10">
<rect rx="6" ry="6" x="-17" y="-22" width="35" height="44" class="key"/>
</g>
<g transform="translate(615, 24)" class="key keypos-11">
<rect rx="6" ry="6" x="-17" y="-22" width="35" height="44" class="key"/>
</g>
<g transform="translate(654, 24)" class="key keypos-12">
<rect rx="6" ry="6" x="-17" y="-22" width="35" height="44" class="key"/>
</g>
<g transform="translate(693, 24)" class="key keypos-13">
<rect rx="6" ry="6" x="-17" y="-22" width="35" height="44" class="key"/>
</g>
<g transform="translate(732, 24)" class="key keypos-14">
<rect rx="6" ry="6" x="-17" y="-22" width="35" height="44" class="key"/>
</g>
<g transform="translate(771, 24)" class="key keypos-15">
<rect rx="6" ry="6" x="-17" y="-22" width="35" height="44" class="key"/>
</g>
<g transform="translate(810, 24)" class="key keypos-16">
<rect rx="6" ry="6" x="-17" y="-22" width="35" height="44" class="key"/>
</g>
<g transform="translate(849, 24)" class="key keypos-17">
<rect rx="6" ry="6" x="-17" y="-22" width="35" height="44" class="key"/>
</g>
<g transform="translate(35, 98)" class="key keypos-18">
<rect rx="6" ry="6" x="-33" y="-26" width="66" height="52" class="key"/>
<text x="0" y="0" class="key tap">F11</text>
</g>
<g transform="translate(98, 98)" class="key keypos-19">
<rect rx="6" ry="6" x="-26" y="-26" width="52" height="52" class="key"/>
<text x="0" y="0" class="key tap">F1</text>
</g>
<g transform="translate(154, 84)" class="key keypos-20">
<rect rx="6" ry="6" x="-26" y="-26" width="52" height="52" class="key"/>
<text x="0" y="0" class="key tap">F2</text>
</g>
<g transform="translate(210, 84)" class="key keypos-21">
<rect rx="6" ry="6" x="-26" y="-26" width="52" height="52" class="key"/>
<text x="0" y="0" class="key tap">F3</text>
</g>
<g transform="translate(266, 84)" class="key keypos-22">
<rect rx="6" ry="6" x="-26" y="-26" width="52" height="52" class="key"/>
<text x="0" y="0" class="key tap">F4</text>
</g>
<g transform="translate(322, 84)" class="key keypos-23">
<rect rx="6" ry="6" x="-26" y="-26" width="52" height="52" class="key"/>
<text x="0" y="0" class="key tap">F5</text>
</g>
<g transform="translate(546, 84)" class="key keypos-24">
<rect rx="6" ry="6" x="-26" y="-26" width="52" height="52" class="key"/>
<text x="0" y="0" class="key tap">F6</text>
</g>
<g transform="translate(602, 84)" class="key keypos-25">
<rect rx="6" ry="6" x="-26" y="-26" width="52" height="52" class="key"/>
<text x="0" y="0" class="key tap">F7</text>
</g>
<g transform="translate(658, 84)" class="key keypos-26">
<rect rx="6" ry="6" x="-26" y="-26" width="52" height="52" class="key"/>
<text x="0" y="0" class="key tap">F8</text>
</g>
<g transform="translate(714, 84)" class="key keypos-27">
<rect rx="6" ry="6" x="-26" y="-26" width="52" height="52" class="key"/>
<text x="0" y="0" class="key tap">F9</text>
</g>
<g transform="translate(770, 98)" class="key keypos-28">
<rect rx="6" ry="6" x="-26" y="-26" width="52" height="52" class="key"/>
<text x="0" y="0" class="key tap">F10</text>
</g>
<g transform="translate(833, 98)" class="key keypos-29">
<rect rx="6" ry="6" x="-33" y="-26" width="66" height="52" class="key"/>
<text x="0" y="0" class="key tap">F12</text>
</g>
<g transform="translate(35, 154)" class="key keypos-30">
<rect rx="6" ry="6" x="-33" y="-26" width="66" height="52" class="key"/>
</g>
<g transform="translate(98, 154)" class="key keypos-31">
<rect rx="6" ry="6" x="-26" y="-26" width="52" height="52" class="key"/>
</g>
<g transform="translate(154, 140)" class="key keypos-32">
<rect rx="6" ry="6" x="-26" y="-26" width="52" height="52" class="key"/>
</g>
<g transform="translate(210, 140)" class="key keypos-33">
<rect rx="6" ry="6" x="-26" y="-26" width="52" height="52" class="key"/>
</g>
<g transform="translate(266, 140)" class="key keypos-34">
<rect rx="6" ry="6" x="-26" y="-26" width="52" height="52" class="key"/>
</g>
<g transform="translate(322, 140)" class="key keypos-35">
<rect rx="6" ry="6" x="-26" y="-26" width="52" height="52" class="key"/>
</g>
<g transform="translate(546, 140)" class="key keypos-36">
<rect rx="6" ry="6" x="-26" y="-26" width="52" height="52" class="key"/>
</g>
<g transform="translate(602, 140)" class="key keypos-37">
<rect rx="6" ry="6" x="-26" y="-26" width="52" height="52" class="key"/>
</g>
<g transform="translate(658, 140)" class="key keypos-38">
<rect rx="6" ry="6" x="-26" y="-26" width="52" height="52" class="key"/>
</g>
<g transform="translate(714, 140)" class="key keypos-39">
<rect rx="6" ry="6" x="-26" y="-26" width="52" height="52" class="key"/>
</g>
<g transform="translate(770, 154)" class="key keypos-40">
<rect rx="6" ry="6" x="-26" y="-26" width="52" height="52" class="key"/>
</g>
<g transform="translate(833, 154)" class="key keypos-41">
<rect rx="6" ry="6" x="-33" y="-26" width="66" height="52" class="key"/>
</g>
<g transform="translate(35, 210)" class="key keypos-42">
<rect rx="6" ry="6" x="-33" y="-26" width="66" height="52" class="key"/>
</g>
<g transform="translate(98, 210)" class="key keypos-43">
<rect rx="6" ry="6" x="-26" y="-26" width="52" height="52" class="key"/>
</g>
<g transform="translate(154, 196)" class="key keypos-44">
<rect rx="6" ry="6" x="-26" y="-26" width="52" height="52" class="key"/>
</g>
<g transform="translate(210, 196)" class="key keypos-45">
<rect rx="6" ry="6" x="-26" y="-26" width="52" height="52" class="key"/>
</g>
<g transform="translate(266, 196)" class="key keypos-46">
<rect rx="6" ry="6" x="-26" y="-26" width="52" height="52" class="key"/>
</g>
<g transform="translate(322, 196)" class="key keypos-47">
<rect rx="6" ry="6" x="-26" y="-26" width="52" height="52" class="key"/>
</g>
<g transform="translate(546, 196)" class="key keypos-48">
<rect rx="6" ry="6" x="-26" y="-26" width="52" height="52" class="key"/>
<text x="0" y="0" class="key tap">LEFT</text>
</g>
<g transform="translate(602, 196)" class="key keypos-49">
<rect rx="6" ry="6" x="-26" y="-26" width="52" height="52" class="key"/>
<text x="0" y="0" class="key tap">DOWN</text>
</g>
<g transform="translate(658, 196)" class="key keypos-50">
<rect rx="6" ry="6" x="-26" y="-26" width="52" height="52" class="key"/>
<text x="0" y="0" class="key tap">UP</text>
</g>
<g transform="translate(714, 196)" class="key keypos-51">
<rect rx="6" ry="6" x="-26" y="-26" width="52" height="52" class="key"/>
<text x="0" y="0" class="key tap">RGHT</text>
</g>
<g transform="translate(770, 210)" class="key keypos-52">
<rect rx="6" ry="6" x="-26" y="-26" width="52" height="52" class="key"/>
</g>
<g transform="translate(833, 210)" class="key keypos-53">
<rect rx="6" ry="6" x="-33" y="-26" width="66" height="52" class="key"/>
</g>
<g transform="translate(35, 266)" class="key keypos-54">
<rect rx="6" ry="6" x="-33" y="-26" width="66" height="52" class="key"/>
<text x="0" y="0" class="key tap">
<tspan x="0" dy="-0.6em">QK</tspan><tspan x="0" dy="1.2em">BOOT</tspan>
</text>
</g>
<g transform="translate(98, 266)" class="key keypos-55">
<rect rx="6" ry="6" x="-26" y="-26" width="52" height="52" class="key"/>
</g>
<g transform="translate(154, 252)" class="key keypos-56">
<rect rx="6" ry="6" x="-26" y="-26" width="52" height="52" class="key"/>
</g>
<g transform="translate(210, 252)" class="key keypos-57">
<rect rx="6" ry="6" x="-26" y="-26" width="52" height="52" class="key"/>
</g>
<g transform="translate(266, 252)" class="key keypos-58">
<rect rx="6" ry="6" x="-26" y="-26" width="52" height="52" class="key"/>
</g>
<g transform="translate(322, 252)" class="key keypos-59">
<rect rx="6" ry="6" x="-26" y="-26" width="52" height="52" class="key"/>
</g>
<g transform="translate(546, 252)" class="key keypos-60">
<rect rx="6" ry="6" x="-26" y="-26" width="52" height="52" class="key"/>
<text x="0" y="0" class="key tap">HOME</text>
</g>
<g transform="translate(602, 252)" class="key keypos-61">
<rect rx="6" ry="6" x="-26" y="-26" width="52" height="52" class="key"/>
<text x="0" y="0" class="key tap">PGDN</text>
</g>
<g transform="translate(658, 252)" class="key keypos-62">
<rect rx="6" ry="6" x="-26" y="-26" width="52" height="52" class="key"/>
<text x="0" y="0" class="key tap">PGUP</text>
</g>
<g transform="translate(714, 252)" class="key keypos-63">
<rect rx="6" ry="6" x="-26" y="-26" width="52" height="52" class="key"/>
<text x="0" y="0" class="key tap">END</text>
</g>
<g transform="translate(770, 266)" class="key keypos-64">
<rect rx="6" ry="6" x="-26" y="-26" width="52" height="52" class="key"/>
</g>
<g transform="translate(833, 266)" class="key keypos-65">
<rect rx="6" ry="6" x="-33" y="-26" width="66" height="52" class="key"/>
</g>
<g transform="translate(98, 322)" class="key keypos-66">
<rect rx="6" ry="6" x="-26" y="-26" width="52" height="52" class="key"/>
</g>
<g transform="translate(154, 308)" class="key keypos-67">
<rect rx="6" ry="6" x="-26" y="-26" width="52" height="52" class="key"/>
</g>
<g transform="translate(210, 308)" class="key held keypos-68">
<rect rx="6" ry="6" x="-26" y="-26" width="52" height="52" class="key held"/>
</g>
<g transform="translate(266, 308)" class="key keypos-69">
<rect rx="6" ry="6" x="-26" y="-26" width="52" height="52" class="key"/>
</g>
<g transform="translate(602, 308)" class="key keypos-70">
<rect rx="6" ry="6" x="-26" y="-26" width="52" height="52" class="key"/>
</g>
<g transform="translate(658, 308)" class="key keypos-71">
<rect rx="6" ry="6" x="-26" y="-26" width="52" height="52" class="key"/>
</g>
<g transform="translate(714, 308)" class="key keypos-72">
<rect rx="6" ry="6" x="-26" y="-26" width="52" height="52" class="key"/>
</g>
<g transform="translate(770, 322)" class="key keypos-73">
<rect rx="6" ry="6" x="-26" y="-26" width="52" height="52" class="key"/>
</g>
<g transform="translate(322, 364)" class="key keypos-74">
<rect rx="6" ry="6" x="-26" y="-26" width="52" height="52" class="key"/>
</g>
<g transform="translate(378, 364)" class="key keypos-75">
<rect rx="6" ry="6" x="-26" y="-26" width="52" height="52" class="key"/>
</g>
<g transform="translate(490, 364)" class="key keypos-76">
<rect rx="6" ry="6" x="-26" y="-26" width="52" height="52" class="key"/>
</g>
<g transform="translate(546, 364)" class="key keypos-77">
<rect rx="6" ry="6" x="-26" y="-26" width="52" height="52" class="key"/>
</g>
<g transform="translate(378, 420)" class="key keypos-78">
<rect rx="6" ry="6" x="-26" y="-26" width="52" height="52" class="key"/>
</g>
<g transform="translate(490, 420)" class="key keypos-79">
<rect rx="6" ry="6" x="-26" y="-26" width="52" height="52" class="key"/>
</g>
<g transform="translate(266, 448)" class="key keypos-80">
<rect rx="6" ry="6" x="-26" y="-54" width="52" height="108" class="key"/>
</g>
<g transform="translate(322, 448)" class="key keypos-81">
<rect rx="6" ry="6" x="-26" y="-54" width="52" height="108" class="key"/>
</g>
<g transform="translate(378, 476)" class="key keypos-82">
<rect rx="6" ry="6" x="-26" y="-26" width="52" height="52" class="key"/>
</g>
<g transform="translate(490, 476)" class="key keypos-83">
<rect rx="6" ry="6" x="-26" y="-26" width="52" height="52" class="key"/>
</g>
<g transform="translate(546, 448)" class="key keypos-84">
<rect rx="6" ry="6" x="-26" y="-54" width="52" height="108" class="key"/>
</g>
<g transform="translate(602, 448)" class="key keypos-85">
<rect rx="6" ry="6" x="-26" y="-54" width="52" height="108" class="key"/>
<text x="0" y="0" class="key tap">TAB</text>
</g>
</g>
</g>
<g transform="translate(30, 1120)" class="layer-L2">
<text x="0" y="28" class="label">L2:</text>
<g transform="translate(0, 56)">
<g transform="translate(19, 24)" class="key keypos-0">
<rect rx="6" ry="6" x="-17" y="-22" width="35" height="44" class="key"/>
</g>
<g transform="translate(59, 24)" class="key keypos-1">
<rect rx="6" ry="6" x="-17" y="-22" width="35" height="44" class="key"/>
</g>
<g transform="translate(97, 24)" class="key keypos-2">
<rect rx="6" ry="6" x="-17" y="-22" width="35" height="44" class="key"/>
</g>
<g transform="translate(136, 24)" class="key keypos-3">
<rect rx="6" ry="6" x="-17" y="-22" width="35" height="44" class="key"/>
</g>
<g transform="translate(175, 24)" class="key keypos-4">
<rect rx="6" ry="6" x="-17" y="-22" width="35" height="44" class="key"/>
</g>
<g transform="translate(214, 24)" class="key keypos-5">
<rect rx="6" ry="6" x="-17" y="-22" width="35" height="44" class="key"/>
</g>
<g transform="translate(253, 24)" class="key keypos-6">
<rect rx="6" ry="6" x="-17" y="-22" width="35" height="44" class="key"/>
</g>
<g transform="translate(292, 24)" class="key keypos-7">
<rect rx="6" ry="6" x="-17" y="-22" width="35" height="44" class="key"/>
</g>
<g transform="translate(331, 24)" class="key keypos-8">
<rect rx="6" ry="6" x="-17" y="-22" width="35" height="44" class="key"/>
</g>
<g transform="translate(537, 24)" class="key keypos-9">
<rect rx="6" ry="6" x="-17" y="-22" width="35" height="44" class="key"/>
</g>
<g transform="translate(577, 24)" class="key keypos-10">
<rect rx="6" ry="6" x="-17" y="-22" width="35" height="44" class="key"/>
</g>
<g transform="translate(615, 24)" class="key keypos-11">
<rect rx="6" ry="6" x="-17" y="-22" width="35" height="44" class="key"/>
</g>
<g transform="translate(654, 24)" class="key keypos-12">
<rect rx="6" ry="6" x="-17" y="-22" width="35" height="44" class="key"/>
</g>
<g transform="translate(693, 24)" class="key keypos-13">
<rect rx="6" ry="6" x="-17" y="-22" width="35" height="44" class="key"/>
</g>
<g transform="translate(732, 24)" class="key keypos-14">
<rect rx="6" ry="6" x="-17" y="-22" width="35" height="44" class="key"/>
</g>
<g transform="translate(771, 24)" class="key keypos-15">
<rect rx="6" ry="6" x="-17" y="-22" width="35" height="44" class="key"/>
</g>
<g transform="translate(810, 24)" class="key keypos-16">
<rect rx="6" ry="6" x="-17" y="-22" width="35" height="44" class="key"/>
</g>
<g transform="translate(849, 24)" class="key keypos-17">
<rect rx="6" ry="6" x="-17" y="-22" width="35" height="44" class="key"/>
</g>
<g transform="translate(35, 98)" class="key keypos-18">
<rect rx="6" ry="6" x="-33" y="-26" width="66" height="52" class="key"/>
</g>
<g transform="translate(98, 98)" class="key keypos-19">
<rect rx="6" ry="6" x="-26" y="-26" width="52" height="52" class="key"/>
</g>
<g transform="translate(154, 84)" class="key keypos-20">
<rect rx="6" ry="6" x="-26" y="-26" width="52" height="52" class="key"/>
</g>
<g transform="translate(210, 84)" class="key keypos-21">
<rect rx="6" ry="6" x="-26" y="-26" width="52" height="52" class="key"/>
</g>
<g transform="translate(266, 84)" class="key keypos-22">
<rect rx="6" ry="6" x="-26" y="-26" width="52" height="52" class="key"/>
</g>
<g transform="translate(322, 84)" class="key keypos-23">
<rect rx="6" ry="6" x="-26" y="-26" width="52" height="52" class="key"/>
</g>
<g transform="translate(546, 84)" class="key keypos-24">
<rect rx="6" ry="6" x="-26" y="-26" width="52" height="52" class="key"/>
</g>
<g transform="translate(602, 84)" class="key keypos-25">
<rect rx="6" ry="6" x="-26" y="-26" width="52" height="52" class="key"/>
</g>
<g transform="translate(658, 84)" class="key keypos-26">
<rect rx="6" ry="6" x="-26" y="-26" width="52" height="52" class="key"/>
</g>
<g transform="translate(714, 84)" class="key keypos-27">
<rect rx="6" ry="6" x="-26" y="-26" width="52" height="52" class="key"/>
</g>
<g transform="translate(770, 98)" class="key keypos-28">
<rect rx="6" ry="6" x="-26" y="-26" width="52" height="52" class="key"/>
</g>
<g transform="translate(833, 98)" class="key keypos-29">
<rect rx="6" ry="6" x="-33" y="-26" width="66" height="52" class="key"/>
</g>
<g transform="translate(35, 154)" class="key keypos-30">
<rect rx="6" ry="6" x="-33" y="-26" width="66" height="52" class="key"/>
</g>
<g transform="translate(98, 154)" class="key keypos-31">
<rect rx="6" ry="6" x="-26" y="-26" width="52" height="52" class="key"/>
</g>
<g transform="translate(154, 140)" class="key keypos-32">
<rect rx="6" ry="6" x="-26" y="-26" width="52" height="52" class="key"/>
</g>
<g transform="translate(210, 140)" class="key keypos-33">
<rect rx="6" ry="6" x="-26" y="-26" width="52" height="52" class="key"/>
</g>
<g transform="translate(266, 140)" class="key keypos-34">
<rect rx="6" ry="6" x="-26" y="-26" width="52" height="52" class="key"/>
</g>
<g transform="translate(322, 140)" class="key keypos-35">
<rect rx="6" ry="6" x="-26" y="-26" width="52" height="52" class="key"/>
</g>
<g transform="translate(546, 140)" class="key keypos-36">
<rect rx="6" ry="6" x="-26" y="-26" width="52" height="52" class="key"/>
</g>
<g transform="translate(602, 140)" class="key keypos-37">
<rect rx="6" ry="6" x="-26" y="-26" width="52" height="52" class="key"/>
</g>
<g transform="translate(658, 140)" class="key keypos-38">
<rect rx="6" ry="6" x="-26" y="-26" width="52" height="52" class="key"/>
</g>
<g transform="translate(714, 140)" class="key keypos-39">
<rect rx="6" ry="6" x="-26" y="-26" width="52" height="52" class="key"/>
</g>
<g transform="translate(770, 154)" class="key keypos-40">
<rect rx="6" ry="6" x="-26" y="-26" width="52" height="52" class="key"/>
</g>
<g transform="translate(833, 154)" class="key keypos-41">
<rect rx="6" ry="6" x="-33" y="-26" width="66" height="52" class="key"/>
</g>
<g transform="translate(35, 210)" class="key keypos-42">
<rect rx="6" ry="6" x="-33" y="-26" width="66" height="52" class="key"/>
</g>
<g transform="translate(98, 210)" class="key keypos-43">
<rect rx="6" ry="6" x="-26" y="-26" width="52" height="52" class="key"/>
</g>
<g transform="translate(154, 196)" class="key keypos-44">
<rect rx="6" ry="6" x="-26" y="-26" width="52" height="52" class="key"/>
<text x="0" y="0" class="key tap">=</text>
</g>
<g transform="translate(210, 196)" class="key keypos-45">
<rect rx="6" ry="6" x="-26" y="-26" width="52" height="52" class="key"/>
<text x="0" y="0" class="key tap">~</text>
</g>
<g transform="translate(266, 196)" class="key keypos-46">
<rect rx="6" ry="6" x="-26" y="-26" width="52" height="52" class="key"/>
<text x="0" y="0" class="key tap">_</text>
</g>
<g transform="translate(322, 196)" class="key keypos-47">
<rect rx="6" ry="6" x="-26" y="-26" width="52" height="52" class="key"/>
<text x="0" y="0" class="key tap">|</text>
</g>
<g transform="translate(546, 196)" class="key keypos-48">
<rect rx="6" ry="6" x="-26" y="-26" width="52" height="52" class="key"/>
<text x="0" y="0" class="key tap">&quot;</text>
</g>
<g transform="translate(602, 196)" class="key keypos-49">
<rect rx="6" ry="6" x="-26" y="-26" width="52" height="52" class="key"/>
<text x="0" y="0" class="key tap">[</text>
</g>
<g transform="translate(658, 196)" class="key keypos-50">
<rect rx="6" ry="6" x="-26" y="-26" width="52" height="52" class="key"/>
<text x="0" y="0" class="key tap">]</text>
</g>
<g transform="translate(714, 196)" class="key keypos-51">
<rect rx="6" ry="6" x="-26" y="-26" width="52" height="52" class="key"/>
</g>
<g transform="translate(770, 210)" class="key keypos-52">
<rect rx="6" ry="6" x="-26" y="-26" width="52" height="52" class="key"/>
</g>
<g transform="translate(833, 210)" class="key keypos-53">
<rect rx="6" ry="6" x="-33" y="-26" width="66" height="52" class="key"/>
</g>
<g transform="translate(35, 266)" class="key keypos-54">
<rect rx="6" ry="6" x="-33" y="-26" width="66" height="52" class="key"/>
</g>
<g transform="translate(98, 266)" class="key keypos-55">
<rect rx="6" ry="6" x="-26" y="-26" width="52" height="52" class="key"/>
</g>
<g transform="translate(154, 252)" class="key keypos-56">
<rect rx="6" ry="6" x="-26" y="-26" width="52" height="52" class="key"/>
<text x="0" y="0" class="key tap">+</text>
</g>
<g transform="translate(210, 252)" class="key keypos-57">
<rect rx="6" ry="6" x="-26" y="-26" width="52" height="52" class="key"/>
<text x="0" y="0" class="key tap">`</text>
</g>
<g transform="translate(266, 252)" class="key keypos-58">
<rect rx="6" ry="6" x="-26" y="-26" width="52" height="52" class="key"/>
<text x="0" y="0" class="key tap">-</text>
</g>
<g transform="translate(322, 252)" class="key keypos-59">
<rect rx="6" ry="6" x="-26" y="-26" width="52" height="52" class="key"/>
<text x="0" y="0" class="key tap">\</text>
</g>
<g transform="translate(546, 252)" class="key keypos-60">
<rect rx="6" ry="6" x="-26" y="-26" width="52" height="52" class="key"/>
<text x="0" y="0" class="key tap">&#x27;</text>
</g>
<g transform="translate(602, 252)" class="key keypos-61">
<rect rx="6" ry="6" x="-26" y="-26" width="52" height="52" class="key"/>
<text x="0" y="0" class="key tap">{</text>
</g>
<g transform="translate(658, 252)" class="key keypos-62">
<rect rx="6" ry="6" x="-26" y="-26" width="52" height="52" class="key"/>
<text x="0" y="0" class="key tap">}</text>
</g>
<g transform="translate(714, 252)" class="key keypos-63">
<rect rx="6" ry="6" x="-26" y="-26" width="52" height="52" class="key"/>
</g>
<g transform="translate(770, 266)" class="key keypos-64">
<rect rx="6" ry="6" x="-26" y="-26" width="52" height="52" class="key"/>
</g>
<g transform="translate(833, 266)" class="key keypos-65">
<rect rx="6" ry="6" x="-33" y="-26" width="66" height="52" class="key"/>
</g>
<g transform="translate(98, 322)" class="key keypos-66">
<rect rx="6" ry="6" x="-26" y="-26" width="52" height="52" class="key"/>
</g>
<g transform="translate(154, 308)" class="key keypos-67">
<rect rx="6" ry="6" x="-26" y="-26" width="52" height="52" class="key"/>
</g>
<g transform="translate(210, 308)" class="key keypos-68">
<rect rx="6" ry="6" x="-26" y="-26" width="52" height="52" class="key"/>
</g>
<g transform="translate(266, 308)" class="key keypos-69">
<rect rx="6" ry="6" x="-26" y="-26" width="52" height="52" class="key"/>
</g>
<g transform="translate(602, 308)" class="key keypos-70">
<rect rx="6" ry="6" x="-26" y="-26" width="52" height="52" class="key"/>
</g>
<g transform="translate(658, 308)" class="key held keypos-71">
<rect rx="6" ry="6" x="-26" y="-26" width="52" height="52" class="key held"/>
</g>
<g transform="translate(714, 308)" class="key keypos-72">
<rect rx="6" ry="6" x="-26" y="-26" width="52" height="52" class="key"/>
</g>
<g transform="translate(770, 322)" class="key keypos-73">
<rect rx="6" ry="6" x="-26" y="-26" width="52" height="52" class="key"/>
</g>
<g transform="translate(322, 364)" class="key keypos-74">
<rect rx="6" ry="6" x="-26" y="-26" width="52" height="52" class="key"/>
</g>
<g transform="translate(378, 364)" class="key keypos-75">
<rect rx="6" ry="6" x="-26" y="-26" width="52" height="52" class="key"/>
</g>
<g transform="translate(490, 364)" class="key keypos-76">
<rect rx="6" ry="6" x="-26" y="-26" width="52" height="52" class="key"/>
</g>
<g transform="translate(546, 364)" class="key keypos-77">
<rect rx="6" ry="6" x="-26" y="-26" width="52" height="52" class="key"/>
</g>
<g transform="translate(378, 420)" class="key keypos-78">
<rect rx="6" ry="6" x="-26" y="-26" width="52" height="52" class="key"/>
</g>
<g transform="translate(490, 420)" class="key keypos-79">
<rect rx="6" ry="6" x="-26" y="-26" width="52" height="52" class="key"/>
</g>
<g transform="translate(266, 448)" class="key keypos-80">
<rect rx="6" ry="6" x="-26" y="-54" width="52" height="108" class="key"/>
</g>
<g transform="translate(322, 448)" class="key keypos-81">
<rect rx="6" ry="6" x="-26" y="-54" width="52" height="108" class="key"/>
</g>
<g transform="translate(378, 476)" class="key keypos-82">
<rect rx="6" ry="6" x="-26" y="-26" width="52" height="52" class="key"/>
</g>
<g transform="translate(490, 476)" class="key keypos-83">
<rect rx="6" ry="6" x="-26" y="-26" width="52" height="52" class="key"/>
</g>
<g transform="translate(546, 448)" class="key keypos-84">
<rect rx="6" ry="6" x="-26" y="-54" width="52" height="108" class="key"/>
</g>
<g transform="translate(602, 448)" class="key keypos-85">
<rect rx="6" ry="6" x="-26" y="-54" width="52" height="108" class="key"/>
</g>
</g>
</g>
</svg>
